<svg width="42" height="42" viewBox="0 0 42 42" fill="none" xmlns="http://www.w3.org/2000/svg">
<rect width="42" height="42" rx="8" fill="#F30AEA"/>
<path d="M15.5 15C15.3674 15 15.2402 15.0527 15.1464 15.1464C15.0527 15.2402 15 15.3674 15 15.5C15 15.6326 15.0527 15.7598 15.1464 15.8536C15.2402 15.9473 15.3674 16 15.5 16H15.746C15.8546 16.0002 15.9601 16.0357 16.0467 16.1012C16.1333 16.1667 16.1963 16.2586 16.226 16.363L17.812 21.913C17.9017 22.2262 18.0909 22.5017 18.3511 22.6978C18.6113 22.8939 18.9282 23 19.254 23H23.823C24.1228 23.0001 24.4158 22.9102 24.6641 22.7421C24.9124 22.5741 25.1047 22.3354 25.216 22.057L26.69 18.371C26.7506 18.2193 26.7731 18.0551 26.7556 17.8927C26.7381 17.7303 26.681 17.5747 26.5895 17.4395C26.4979 17.3042 26.3747 17.1934 26.2304 17.1168C26.0862 17.0402 25.9253 17.0001 25.762 17H17.448L17.187 16.088C17.0975 15.7748 16.9085 15.4992 16.6485 15.3029C16.3886 15.1066 16.0718 15.0003 15.746 15H15.5ZM19.5 27C19.697 27 19.892 26.9612 20.074 26.8858C20.256 26.8104 20.4214 26.6999 20.5607 26.5607C20.6999 26.4214 20.8104 26.256 20.8858 26.074C20.9612 25.892 21 25.697 21 25.5C21 25.303 20.9612 25.108 20.8858 24.926C20.8104 24.744 20.6999 24.5786 20.5607 24.4393C20.4214 24.3001 20.256 24.1896 20.074 24.1142C19.892 24.0388 19.697 24 19.5 24C19.1022 24 18.7206 24.158 18.4393 24.4393C18.158 24.7206 18 25.1022 18 25.5C18 25.8978 18.158 26.2794 18.4393 26.5607C18.7206 26.842 19.1022 27 19.5 27ZM23.5 27C23.697 27 23.892 26.9612 24.074 26.8858C24.256 26.8104 24.4214 26.6999 24.5607 26.5607C24.6999 26.4214 24.8104 26.256 24.8858 26.074C24.9612 25.892 25 25.697 25 25.5C25 25.303 24.9612 25.108 24.8858 24.926C24.8104 24.744 24.6999 24.5786 24.5607 24.4393C24.4214 24.3001 24.256 24.1896 24.074 24.1142C23.892 24.0388 23.697 24 23.5 24C23.1022 24 22.7206 24.158 22.4393 24.4393C22.158 24.7206 22 25.1022 22 25.5C22 25.8978 22.158 26.2794 22.4393 26.5607C22.7206 26.842 23.1022 27 23.5 27Z" fill="white"/>
</svg>
